<?xml version="1.0" encoding="UTF-8"?>
<svg width="256px" height="256px" viewBox="0 0 256 256" version="1.1" xmlns="http://www.w3.org/2000/svg" xmlns:xlink="http://www.w3.org/1999/xlink">
    <title>Crumblo logo</title>
    <g id="Crumblo-logo" stroke="none" stroke-width="1" fill="none" fill-rule="evenodd">
        <rect fill="#FFFFFF" x="0" y="0" width="256" height="256"></rect>
        <path d="M206,53.8866404 L203.200578,78.2936148 L167.829385,78.2936148 L167.829385,78.2936148 C155.637969,78.2936148 143.266732,91.9724507 143.266732,111.938681 C143.266732,131.904911 157.049859,138.033022 163.365371,138.033022 L197.629247,138.033022 L197.629247,138.033022 L195.034636,162.666667 L157.049859,162.666667 L157.049859,162.666667 C134.700581,162.666667 109.214829,143.736337 111.558359,113.721247 C111.771091,110.996645 112.068472,108.273654 112.46257,105.574433 C122.637535,104.975556 130.690733,97.0936392 130.690733,87.4585769 C130.690733,84.564253 129.964035,81.828128 128.671425,79.4000634 C129.778533,79.5832216 130.918326,79.6783314 132.081952,79.6783314 C142.838843,79.6783314 151.559026,71.5505508 151.559026,61.5244253 C151.559026,59.449707 151.185623,57.4562769 150.498039,55.5993333 C155.012815,54.4855013 160.012841,53.8866404 165.543227,53.8866404 L206,53.8866404 L206,53.8866404 Z M83.3496624,90.0507901 C90.502054,90.0507901 93.182825,93.5664894 93.182825,99.3206124 C93.182825,105.074735 87.5273113,110.78461 81.9846329,110.78461 C76.1639008,110.827605 70.7982557,107.374628 70.8570819,100.479559 C70.9238292,94.6581246 76.1972707,90.0507901 83.3496624,90.0507901 Z M61.1391812,62.8666673 C68.2915729,62.8666673 72.2783853,67.4945767 72.2783853,73.2486997 C72.2742637,79.4936385 66.0348625,84.8679054 60.4921841,84.8679054 C55.1942121,84.9319446 50,81.1262865 50,74.5136601 C50,67.9010337 54.6343018,62.9035449 61.1391812,62.8666673 Z M106.244533,50 C117.816857,50 123.753656,55.4502056 123.753656,64.7601792 C123.753656,74.0701529 113.921035,83.5684541 104.953171,83.5684541 C95.9853078,83.5684541 87.5170741,79.0701831 87.5170741,68.3330898 C87.5170741,57.5959965 94.6722085,50 106.244533,50 Z" id="Crumblo" fill="#8155F4"></path>
        <path d="M95.1882341,204.210203 L94.2087818,218.739682 C93.9938359,221.196733 95.3318742,222.490672 98.2228967,222.621498 C100.88733,222.590591 102.307905,221.747939 102.484619,220.093542 L103.905634,204.210203 L110.532654,204.210203 L108.706715,227.686244 L102.065713,227.686244 L102.148304,226.762219 C100.743683,227.58648 98.8882459,227.998611 96.5819925,227.998611 C91.9602461,228.067488 87.240279,225.570896 87.3452903,221.559762 C87.4157704,218.867619 87.8174786,213.084432 88.5504147,204.210203 L95.1882341,204.210203 Z M209.397077,203.949624 C212.996414,203.941972 220.930793,205.429196 221,215.065406 C221,224.035618 212.65949,227.957413 207.139998,227.957413 C201.620506,227.957413 195.281664,224.697555 195.371332,217.399408 C195.371332,209.310954 201.345736,203.867638 209.397077,203.949624 Z M193.318199,193 L190.914038,222.327852 C190.920503,222.575267 191.047358,222.698975 191.294601,222.698975 L193.318199,222.698975 L193.318199,222.698975 L192.479784,227.957413 L187.861596,227.957413 L187.861596,227.957413 C185.945688,227.957413 183.995246,226.246412 183.916226,223.999544 L183.914848,223.947568 L183.914848,223.947568 L183.914788,223.754059 C183.944081,221.586393 184.84988,211.33504 186.632185,193 L193.318199,193 Z M165.526001,193 L164.449257,204.793897 C166.43746,204.201898 168.196345,203.905898 169.725913,203.905898 C172.020264,203.905898 181.220005,204.580824 181.220005,214.891369 C181.220005,225.201913 172.57862,227.957714 167.939567,227.957714 C165.163506,227.970843 163.181589,227.541278 161.993817,226.669019 L161.87443,227.815531 L155.649573,227.815531 L158.708186,193 L165.526001,193 Z M143.089609,203.902619 C149.410502,203.907655 152.035025,208.162722 152.064797,210.948668 C152.064797,212.681303 151.679315,218.283884 150.90835,227.756411 L144.269208,227.756411 C144.999052,218.45395 145.387102,213.502868 145.43336,212.903162 C145.502747,212.003605 144.809229,209.239991 141.565282,209.239991 C138.466384,209.250861 137.105395,211.780652 136.961271,212.903162 C136.865189,213.651503 136.384233,218.602586 135.518405,227.756411 L128.648346,227.756411 C129.612357,218.578948 130.094362,213.627866 130.094362,212.903162 C130.157075,211.641703 129.127937,209.107356 126.190928,209.239991 C122.497876,209.359052 121.688466,212.418438 121.617114,212.903162 C121.569546,213.226312 121.082732,218.177395 120.156671,227.756411 L113.481957,227.756411 L115.511685,204.181826 L121.340483,204.181826 L121.212179,205.742109 C122.981624,204.53003 125.042831,203.916866 127.3958,203.902619 C130.461159,203.908163 132.90483,204.939059 134.726813,206.995308 C136.698009,204.949678 139.485608,203.918782 143.089609,203.902619 Z M78.6029454,204.210203 L78.439871,206.010198 C79.9255337,205.180367 81.6022322,204.765452 83.4699667,204.765452 L85.3374772,204.765452 L84.9707522,210.218624 C80.7087042,209.959127 78.4564653,210.762664 78.2140354,212.629235 C77.9716055,214.495806 77.5084293,219.514809 76.8245067,227.686244 L70.0449993,227.686244 L72.0255139,204.210203 L78.6029454,204.210203 Z M68.7431912,204.210203 L68.1376693,209.477522 L60.4867914,209.477522 L60.4867914,209.477522 C57.8497577,209.477522 55.1738281,212.42958 55.1738281,216.738533 C55.1738281,221.047487 58.155153,222.370007 59.521214,222.370007 L66.9325763,222.370007 L66.9325763,222.370007 L66.3713554,227.686244 L58.155153,227.686244 L58.155153,227.686244 C53.3209482,227.686244 47.808316,223.600851 48.3152274,217.123232 C48.3612527,216.535093 48.4255963,215.947301 48.5108704,215.364642 C50.7123536,215.23515 52.4536078,213.534393 52.4536078,211.455431 C52.4536078,210.830346 52.2961918,210.239451 52.0162142,209.71516 C52.2552828,209.75575 52.5023193,209.776361 52.7545321,209.776361 C55.0812745,209.776361 56.9674719,208.022288 56.9674719,205.858529 C56.9674719,205.410969 56.8867722,204.980937 56.7381664,204.580331 C57.7143617,204.339465 58.7959574,204.210203 59.9922898,204.210203 L68.7431912,204.210203 L68.7431912,204.210203 Z M208.788176,209.310954 C204.45563,209.310954 202.507263,213.156092 202.507263,216.756912 C202.507263,220.357732 204.45563,222.698975 207.603874,222.698975 C210.752118,222.698975 213.88126,220.606695 213.88126,215.00788 C213.88126,211.275336 212.183565,209.376361 208.788176,209.310954 Z M173.988615,215.024459 C173.988615,209.549715 170.521912,209.196083 168.808642,209.262674 C164.604323,209.262674 163.19903,213.104805 163.19903,217.155545 C163.19903,221.206285 164.82169,222.646504 167.64452,222.646504 C170.46735,222.646504 173.988615,220.499203 173.988615,215.024459 Z M42.2136156,212.014862 C43.7606958,212.014862 44.3405533,212.773593 44.3405533,214.015402 C44.3405533,215.257211 43.1172515,216.489471 41.9183563,216.489471 C40.6593174,216.49875 39.4987149,215.753556 39.5114391,214.265516 C39.5258767,213.009181 40.6665353,212.014862 42.2136156,212.014862 Z M37.4094328,206.148201 C38.9565131,206.148201 39.8188706,207.146959 39.8188706,208.388769 C39.8179791,209.736502 38.468381,210.896333 37.2694857,210.896333 C36.1235211,210.910154 35,210.088847 35,208.661762 C35,207.234678 36.0024111,206.156159 37.4094328,206.148201 Z M47.1658335,203.371419 C49.6689563,203.371419 50.9531007,204.547639 50.9531007,206.556843 C50.9531007,208.566048 48.8262802,210.615896 46.8865088,210.615896 C44.9467374,210.615896 43.1150372,209.645115 43.1150372,207.327921 C43.1150372,205.010726 44.6627107,203.371419 47.1658335,203.371419 Z" id="Crumblo-Copy" fill="#8155F4"></path>
    </g>
</svg>