<?xml version="1.0" encoding="utf-8"?>
<svg viewBox="0 0 87 87" width="87" height="87" xmlns="http://www.w3.org/2000/svg">
  <path d="M 87 43.5 C 87 67.524 67.524 87 43.5 87 C 19.476 87 0 67.524 0 43.5 C 0 19.475 19.476 0 43.5 0 C 67.524 0 87 19.475 87 43.5 Z M 82 43.5 C 82 64.763 64.763 82 43.5 82 C 22.237 82 5 64.763 5 43.5 C 5 22.237 22.237 5 43.5 5 C 64.763 5 82 22.237 82 43.5 Z M 43.512 15.503 L 43.514 15.503 C 43.665 15.503 43.816 15.511 43.966 15.526 C 44.116 15.542 44.265 15.565 44.413 15.595 C 44.561 15.625 44.707 15.663 44.851 15.708 C 44.995 15.754 45.136 15.806 45.275 15.866 C 45.414 15.925 45.55 15.991 45.682 16.065 C 45.814 16.138 45.941 16.218 46.065 16.304 C 46.189 16.39 46.308 16.483 46.423 16.581 C 46.537 16.68 46.647 16.784 46.751 16.893 C 46.855 17.002 46.953 17.117 47.045 17.236 C 47.137 17.356 47.224 17.48 47.304 17.608 C 47.383 17.736 47.456 17.868 47.523 18.003 C 47.589 18.139 47.649 18.278 47.701 18.419 C 47.753 18.561 47.798 18.705 47.836 18.851 C 47.874 18.997 47.904 19.145 47.927 19.294 C 47.949 19.443 47.964 19.593 47.972 19.744 C 47.98 19.895 47.98 20.046 47.972 20.197 L 46.128 56.004 C 46.124 56.087 46.116 56.17 46.104 56.252 C 46.092 56.335 46.076 56.416 46.056 56.497 C 46.036 56.578 46.012 56.658 45.985 56.737 C 45.957 56.815 45.925 56.893 45.891 56.968 C 45.856 57.044 45.818 57.118 45.776 57.19 C 45.734 57.262 45.688 57.332 45.64 57.4 C 45.592 57.468 45.54 57.533 45.486 57.596 C 45.431 57.659 45.373 57.719 45.313 57.776 C 45.252 57.834 45.189 57.888 45.124 57.939 C 45.058 57.991 44.99 58.039 44.92 58.084 C 44.85 58.129 44.778 58.17 44.704 58.209 C 44.63 58.247 44.554 58.281 44.476 58.312 C 44.398 58.343 44.32 58.37 44.24 58.394 C 44.16 58.417 44.079 58.436 43.998 58.452 C 43.916 58.468 43.833 58.48 43.75 58.488 C 43.667 58.496 43.584 58.5 43.501 58.5 L 43.499 58.5 C 43.415 58.5 43.332 58.496 43.25 58.488 C 43.166 58.48 43.084 58.468 43.002 58.452 C 42.92 58.436 42.84 58.417 42.76 58.393 C 42.68 58.37 42.601 58.343 42.524 58.312 C 42.446 58.281 42.371 58.247 42.297 58.208 C 42.222 58.17 42.15 58.129 42.08 58.084 C 42.01 58.039 41.942 57.991 41.877 57.939 C 41.811 57.888 41.748 57.833 41.688 57.776 C 41.627 57.719 41.569 57.658 41.515 57.596 C 41.46 57.533 41.408 57.467 41.36 57.4 C 41.312 57.332 41.267 57.262 41.225 57.19 C 41.183 57.118 41.144 57.044 41.11 56.968 C 41.075 56.892 41.044 56.815 41.017 56.737 C 40.989 56.658 40.965 56.578 40.946 56.497 C 40.926 56.416 40.91 56.335 40.898 56.252 C 40.885 56.17 40.877 56.087 40.873 56.004 L 39.052 20.197 C 39.044 20.046 39.044 19.895 39.052 19.744 C 39.059 19.593 39.074 19.443 39.097 19.294 C 39.12 19.145 39.151 18.997 39.189 18.851 C 39.226 18.705 39.271 18.561 39.324 18.419 C 39.376 18.277 39.436 18.139 39.502 18.003 C 39.568 17.868 39.642 17.736 39.722 17.608 C 39.802 17.479 39.888 17.356 39.98 17.236 C 40.072 17.117 40.171 17.002 40.275 16.893 C 40.379 16.783 40.488 16.679 40.603 16.581 C 40.717 16.483 40.837 16.39 40.961 16.304 C 41.085 16.218 41.213 16.138 41.345 16.065 C 41.477 15.991 41.612 15.925 41.751 15.865 C 41.889 15.806 42.031 15.754 42.175 15.708 C 42.319 15.663 42.465 15.625 42.613 15.595 C 42.761 15.565 42.91 15.542 43.061 15.526 C 43.211 15.511 43.361 15.503 43.512 15.503 Z M 47 67 C 47 68.933 45.433 70.5 43.5 70.5 C 41.567 70.5 40 68.933 40 67 C 40 65.067 41.567 63.5 43.5 63.5 C 45.433 63.5 47 65.067 47 67 Z" id="Combined-Shape" fill="#F8C686" fill-rule="evenodd" stroke="none"/>
</svg>