<?xml version="1.0" encoding="UTF-8"?>
<svg width="43px" height="35px" viewBox="0 0 43 35" version="1.1" xmlns="http://www.w3.org/2000/svg" xmlns:xlink="http://www.w3.org/1999/xlink">
    <title>icon</title>
    <g id="Woocommerce" stroke="none" stroke-width="1" fill="none" fill-rule="evenodd">
        <g id="Waiting-for-Payment" transform="translate(-1099.000000, -489.000000)" fill="#000000">
            <g id="spinner" transform="translate(1067.335971, 453.335971)">
                <g id="icon" transform="translate(32.000000, 36.000000)">
                    <path d="M10.4361606,20.6229166 C8.56786582,21.5262553 7.28,23.4331056 7.28,25.6393443 L7.28,25.6393443 L7.279,33.9999166 L0,34 L0,26.1967213 C0,23.1184129 2.5072054,20.6229508 5.6,20.6229508 Z" id="body-light" fill-opacity="0.5"></path>
                    <path d="M12.88,0 C13.7919369,0 14.6747812,0.123976773 15.5124475,0.355920267 C12.2635129,2.2385936 10.08,5.74254695 10.08,9.75409836 C10.08,13.7656498 12.2635129,17.2696031 15.5121362,19.1527944 C14.6747812,19.3842199 13.7919369,19.5081967 12.88,19.5081967 C7.46760945,19.5081967 3.08,15.1411381 3.08,9.75409836 C3.08,4.36705859 7.46760945,0 12.88,0 Z" id="head-light" fill-opacity="0.5"></path>
                    <path d="M29.4,0 C34.8123905,0 39.2,4.36705859 39.2,9.75409836 C39.2,15.1411381 34.8123905,19.5081967 29.4,19.5081967 C28.4198986,19.5081967 27.4734016,19.3649935 26.5804775,19.0984623 C29.7784424,17.2019022 31.92,13.7269227 31.92,9.75409836 C31.92,5.78127405 29.7784424,2.30629452 26.5816506,0.410394926 C27.4733846,0.143205771 28.4198899,0 29.4,0 Z" id="head-dark"></path>
                    <ellipse id="head-medium" fill-opacity="0.7" cx="21" cy="9.75409836" rx="9.8" ry="9.75409836"></ellipse>
                    <path d="M36.4,20.6229508 C39.4927946,20.6229508 42,23.1184129 42,26.1967213 L42,34 L34.7197377,33.9998674 L34.72,25.6393443 C34.72,23.4331056 33.4321342,21.5262553 31.5638394,20.6229166 L36.4,20.6229508 Z" id="body-dark"></path>
                    <path d="M14,20.6229508 L28,20.6229508 C31.0927946,20.6229508 33.6,23.1184129 33.6,26.1967213 L33.6,34 L8.4,34 L8.4,26.1967213 C8.4,23.1184129 10.9072054,20.6229508 14,20.6229508 Z" id="body-medium" fill-opacity="0.7"></path>
                </g>
            </g>
        </g>
    </g>
</svg>