<?xml version="1.0" encoding="UTF-8"?>
<svg width="43px" height="8px" viewBox="0 0 43 8" version="1.1" xmlns="http://www.w3.org/2000/svg" xmlns:xlink="http://www.w3.org/1999/xlink">
    <title>Crumblo</title>
    <g id="WebApp-/-NativeApp" stroke="none" stroke-width="1" fill="none" fill-rule="evenodd">
        <g id="Add-account---Select-bank" transform="translate(-186.000000, -782.000000)" fill="#8155F4">
            <g id="powred-by" transform="translate(144.034000, 782.000000)">
                <path d="M55.8804842,2.56233202 L55.6540517,5.8833558 C55.6043599,6.44496762 55.9136913,6.74072508 56.582046,6.77062818 C57.1980172,6.76356364 57.5264295,6.57095743 57.5672829,6.19280955 L57.8957971,2.56233202 L59.42785,2.56233202 L59.0057245,7.92828442 L57.4704391,7.92828442 L57.4895326,7.71707861 C57.1648085,7.90548114 56.7358633,7.9996824 56.2026972,7.9996824 C55.1342289,8.01542592 54.0430537,7.44477634 54.0673305,6.52794551 C54.0836243,5.91259854 54.1764924,4.59072738 54.3459346,2.56233202 L55.8804842,2.56233202 Z M82.2836038,2.50277123 C83.1157085,2.5010222 84.9500006,2.84095908 84.966,5.04352145 C84.966,7.09385556 83.0378176,7.99026574 81.761806,7.99026574 C80.4857944,7.99026574 79.0203632,7.24515545 79.0410928,5.57700747 C79.0410928,3.72821808 80.4222724,2.4840316 82.2836038,2.50277123 Z M78.566444,0 L78.0106432,6.70350907 C78.0121378,6.76006111 78.0414644,6.78833713 78.0986229,6.78833713 L78.566444,6.78833713 L78.566444,6.78833713 L78.3726168,7.99026574 L77.3049711,7.99026574 L77.3049711,7.99026574 C76.8620462,7.99026574 76.4111375,7.59917978 76.3928695,7.08561012 C76.3806908,6.74323035 76.5899852,4.38136031 77.0207525,0 L78.566444,0 Z M72.1413659,0 L71.892441,2.69574777 C72.3520794,2.56043377 72.7587034,2.49277676 73.1123132,2.49277676 C73.6427278,2.49277676 75.7695496,2.64704556 75.7695496,5.00374138 C75.7695496,7.3604372 73.77181,7.99033454 72.6993407,7.99033454 C72.0575631,7.9933356 71.5993781,7.89514933 71.3247857,7.69577575 L71.2971855,7.95783577 L69.8581055,7.95783577 L70.5652042,0 L72.1413659,0 Z M66.9544579,2.49202718 C68.4157396,2.49317833 69.0224842,3.4657651 69.0293671,4.10255259 C69.0293671,4.49858343 68.9402502,5.77917337 68.7620164,7.94432242 L67.2271611,7.94432242 C67.3958883,5.81804579 67.4855989,4.68636973 67.4962929,4.54929426 C67.512334,4.34368106 67.3520046,3.71199789 66.6020597,3.71199789 C65.8856479,3.71448258 65.5710106,4.29272036 65.5376917,4.54929426 C65.5154791,4.72034353 65.4042905,5.85201958 65.2041259,7.94432242 L63.6158863,7.94432242 C63.8387492,5.84661674 63.9501806,4.71494069 63.9501806,4.54929426 C63.9646785,4.26096076 63.7267596,3.68168133 63.0477737,3.71199789 C62.1940036,3.739212 62.0068819,4.43850001 61.9903866,4.54929426 C61.9793897,4.6231571 61.8668466,5.75483315 61.6527574,7.94432242 L60.1096783,7.94432242 L60.5789163,2.55584603 L61.9264343,2.55584603 L61.8967725,2.912482 C62.3058378,2.63543532 62.7823535,2.49528371 63.3263195,2.49202718 C64.0349775,2.49329433 64.5999122,2.72892783 65.0211235,3.19892765 C65.4768301,2.73135505 66.1212749,2.49572156 66.9544579,2.49202718 Z M52.0462508,2.56233202 L52.0085508,2.97375957 C52.3520105,2.78408397 52.7396343,2.68924616 53.1714224,2.68924616 L53.6031587,2.68924616 L53.5183782,3.9356855 C52.533066,3.87637184 52.0123871,4.06003743 51.9563415,4.48668228 C51.9002959,4.91332713 51.7932175,6.06052784 51.6351064,7.92828442 L50.0678009,7.92828442 L50.5256618,2.56233202 L52.0462508,2.56233202 Z M49.7668453,2.56233202 L49.626859,3.76629076 L47.8581077,3.76629076 L47.8581077,3.76629076 C47.2484709,3.76629076 46.629842,4.44104682 46.629842,5.42595044 C46.629842,6.41085406 47.319073,6.71314437 47.6348828,6.71314437 L49.3482623,6.71314437 L49.3482623,6.71314437 L49.2185177,7.92828442 L47.319073,7.92828442 L47.319073,7.92828442 C46.201488,7.92828442 44.9270623,6.99448022 45.0442515,5.51388169 C45.0549414,5.37882254 45.0699058,5.24384367 45.089757,5.11005425 L45.0270146,5.11388876 C45.5649175,5.11388876 46.0009739,4.71295777 46.0009739,4.21838432 C46.0009739,4.07461297 45.9641248,3.93875489 45.8986369,3.81835876 C45.9540298,3.82979503 46.0116762,3.83459671 46.0705424,3.83459671 C46.6084452,3.83459671 47.0445016,3.43366572 47.0445016,2.93909228 C47.0445016,2.83679211 47.0258449,2.73849844 46.9914893,2.64693072 C47.2167562,2.59192654 47.4669873,2.56233202 47.7437874,2.56233202 L49.7668453,2.56233202 L49.7668453,2.56233202 Z M82.1428363,3.72821808 C81.1412263,3.72821808 80.6907974,4.60710671 80.6907974,5.43015124 C80.6907974,6.25319577 81.1412263,6.78833713 81.8690462,6.78833713 C82.596866,6.78833713 83.3202698,6.31010178 83.3202698,5.03037248 C83.3202698,4.1772196 82.927792,3.74316814 82.1428363,3.72821808 Z M72.9594659,3.71577756 L72.900256,3.71718252 C71.9282897,3.71718252 71.6034101,4.59538403 71.6034101,5.52126748 C71.6034101,6.44715094 71.9785411,6.77634377 72.631131,6.77634377 C73.2837208,6.77634377 74.0977766,6.28553205 74.0977766,5.03416205 C74.0977766,3.78279204 73.2963346,3.70196178 72.900256,3.71718252 Z M43.6336638,4.34625424 C43.9913222,4.34625424 44.1253752,4.51967831 44.1253752,4.8035204 C44.1253752,5.08736249 43.8425689,5.36902186 43.5654049,5.36902186 C43.2743368,5.37114275 43.0060255,5.2008127 43.0089671,4.86068946 C43.0123048,4.57352701 43.2760055,4.34625424 43.6336638,4.34625424 Z M42.5230194,3.00530302 C42.8806778,3.00530302 43.08004,3.23359072 43.08004,3.51743281 C43.0798339,3.82548609 42.76783,4.09059046 42.4906661,4.09059046 C42.2257387,4.09374942 41.966,3.90602212 41.966,3.57983137 C41.966,3.25364062 42.1977402,3.00712214 42.5230194,3.00530302 Z M44.7785314,2.37061 C45.3572103,2.37061 45.6540824,2.6394603 45.6540824,3.09870707 C45.6540824,3.55795384 45.1623981,4.02649052 44.7139563,4.02649052 C44.2655146,4.02649052 43.842057,3.80459769 43.842057,3.27495329 C43.842057,2.74530889 44.1998525,2.37061 44.7785314,2.37061 Z" id="Crumblo"></path>
            </g>
        </g>
    </g>
</svg>